<svg width="60" height="60" viewBox="0 0 60 60" fill="none" xmlns="http://www.w3.org/2000/svg">
<path d="M0 5C0 2.23858 2.23858 0 5 0H55C57.7614 0 60 2.23858 60 5V55C60 57.7614 57.7614 60 55 60H5C2.23858 60 0 57.7614 0 55V5Z" fill="#F8F9FA"/>
<path d="M13.4188 23.1415C11.5836 23.4732 9.7554 24.1085 8.3437 24.892C7.28492 25.4849 6.88965 26.1978 6.88965 27.5672C6.88965 28.1177 6.91082 28.2236 7.03082 28.3365C7.27081 28.5553 7.64491 28.4848 8.83779 27.9977C9.45894 27.7436 10.1507 27.4825 10.3836 27.4048L10.8071 27.2778L10.5389 27.2566C10.3977 27.2425 9.93892 27.2848 9.53659 27.3413C8.64721 27.4754 8.48487 27.4825 8.55545 27.3766C8.73192 27.0801 11.9435 26.0143 13.1082 25.859C13.5388 25.8025 13.574 25.7037 12.7482 26.8542C10.6095 29.8259 8.69662 33.0516 8.19547 34.548C8.02607 35.0421 8.01195 35.1903 8.03313 35.875C8.0543 36.6232 8.06136 36.6444 8.259 36.8209C8.47075 36.9973 8.47075 36.9973 9.56482 36.962C10.8565 36.9267 11.8165 36.7503 13.0658 36.3409C16.7151 35.1268 19.6232 32.5081 20.4914 29.6635C20.6537 29.113 20.6749 28.9224 20.682 27.9836C20.682 26.7766 20.5973 26.346 20.1737 25.4778C19.6726 24.4402 18.5926 23.6073 17.2656 23.2121C16.5104 22.9932 14.4422 22.9509 13.4188 23.1415ZM16.9621 25.8025C18.7268 26.1625 19.602 27.1931 19.5102 28.7883C19.4467 29.8541 19.002 30.7223 17.9715 31.7599C16.6939 33.0516 14.8869 34.0469 12.8258 34.5974C12.0847 34.7951 11.9012 34.8162 10.8989 34.8233C9.83304 34.8304 9.78363 34.8233 9.62835 34.668C9.47306 34.5127 9.47306 34.5057 9.586 34.1739C9.70599 33.8492 10.9412 31.534 11.4636 30.6658C11.6047 30.4329 12.1341 29.5929 12.6423 28.7953C14.0187 26.6566 14.0399 26.6143 14.0046 26.1131L13.9764 25.6896H15.1975C16.0445 25.6896 16.5951 25.7249 16.9621 25.8025Z" fill="#3E007C"/>
<path d="M45.4241 23.8329C44.2595 25.0187 42.756 26.9951 40.5961 30.2209C39.6291 31.6608 39.2409 32.3737 39.0644 33.0513C38.9515 33.4748 38.9303 33.5101 38.4998 33.7995C38.0551 34.096 37.808 34.1595 37.6669 34.0183C37.6104 33.9619 37.6457 33.8136 37.8221 33.4678C38.2033 32.7055 38.3798 32.0278 38.3868 31.322C38.3868 30.722 38.3798 30.6867 38.1892 30.5244C38.0833 30.4326 37.9421 30.355 37.8927 30.355C37.808 30.355 37.808 30.3126 37.9068 30.1079C38.0551 29.8044 37.9633 29.5644 37.6386 29.395C37.4622 29.3033 37.2716 29.2891 36.7704 29.3103C36.2269 29.3315 36.0505 29.3738 35.6411 29.5644C35.3728 29.6915 34.9564 29.9315 34.7164 30.1009C34.1658 30.4961 33.2341 31.4843 32.9306 31.9996C32.6412 32.4725 32.3589 33.1572 32.3518 33.3619C32.3518 33.4537 32.1965 33.6301 31.9142 33.8631C31.0742 34.5336 30.7707 34.7383 30.2413 34.9995C29.5849 35.3242 28.8578 35.3948 28.4979 35.1689C28.2438 35.0065 28.0602 34.6607 28.0038 34.2089L27.9544 33.8842L28.4767 33.6584C30.9613 32.5784 32.3095 31.3855 32.4083 30.1785C32.4436 29.7409 32.3024 29.4162 31.9989 29.2609C31.7307 29.1197 30.933 29.1268 30.4389 29.268C28.8437 29.7409 26.8321 31.6326 26.3591 33.1149C26.2956 33.3054 26.0627 33.5666 25.4627 34.103C24.4886 34.9854 24.2275 35.1548 23.8322 35.1548C23.204 35.1548 22.8581 34.576 22.9005 33.5878L22.9287 32.9949L23.5287 32.3314C25.3286 30.3409 26.6838 28.1668 27.1709 26.5081C27.3826 25.7599 27.4461 24.6023 27.2767 24.4047C27.1497 24.2423 26.8321 24.2564 26.4721 24.4329C26.0627 24.6446 24.8416 25.8869 24.3263 26.621C22.9075 28.6327 21.7429 31.1173 21.3829 32.9102C21.0653 34.4701 21.4111 36.2629 22.1382 36.7853C22.724 37.2088 23.6487 36.997 24.5239 36.2277C24.9333 35.8747 25.618 35.1477 25.9709 34.703L26.1897 34.4277L26.2321 34.8865C26.3168 35.8041 26.7474 36.5453 27.3826 36.8488C27.6579 36.9829 27.792 37.0041 28.3849 36.9759C28.9708 36.9547 29.1402 36.9194 29.5496 36.7288C30.199 36.4182 30.7707 35.9735 31.6318 35.0983C32.0271 34.696 32.3518 34.4136 32.3518 34.4701C32.3518 34.7665 32.6694 35.5359 32.9377 35.91C33.347 36.4606 33.8059 36.7147 34.4058 36.7147C35.034 36.7218 35.5917 36.4253 36.3187 35.7124C36.841 35.1901 36.8975 35.1548 37.1798 35.1548C37.6245 35.1548 38.1398 34.9783 38.4856 34.696C38.655 34.5618 38.8244 34.4489 38.8527 34.4489C38.888 34.4489 38.9162 34.6395 38.9162 34.8724C38.9162 35.8465 39.2127 36.4253 39.7068 36.4253C39.9891 36.4253 40.0738 36.3476 41.0832 35.0842C42.0502 33.8772 42.9607 32.8466 43.3701 32.4937C43.7583 32.162 44.1042 31.9078 44.1677 31.9078C44.1889 31.9078 44.0336 32.1831 43.8148 32.5149C42.8901 33.9478 42.4455 35.0206 42.4455 35.8041C42.4455 36.5029 42.6784 36.7923 43.2501 36.7923C43.8572 36.7923 44.5559 36.3335 45.8829 35.0559C46.3135 34.6465 46.6947 34.3077 46.737 34.3077C46.8853 34.3077 47.9652 33.0725 48.304 32.5149L48.664 31.9361L49.5251 31.7808C49.9981 31.6961 50.4074 31.6255 50.4357 31.6255C50.4639 31.6255 50.2874 31.9008 50.0333 32.2396C49.4969 32.9596 49.0028 33.8842 48.8334 34.4771C48.5722 35.3665 48.8334 36.4182 49.3698 36.637C49.6663 36.7641 50.0898 36.7359 50.4145 36.5665C50.8239 36.3618 51.6356 35.6771 52.4191 34.8936L53.1108 34.1948L53.0897 33.7925L53.0685 33.3901L52.5038 33.8136C51.4592 34.5971 50.7604 34.8512 50.4639 34.5477C50.0969 34.1807 50.6192 33.0513 51.7415 31.7808C52.4121 31.0255 52.4968 30.8561 52.4403 30.4044C52.4121 30.2138 52.3274 29.9315 52.2497 29.7832L52.1156 29.508L51.5297 29.515C51.2121 29.515 50.5557 29.5715 50.0686 29.6421C49.5816 29.7127 49.1793 29.7621 49.1651 29.755C49.151 29.7409 49.1934 29.635 49.2498 29.515C49.391 29.2468 49.3981 28.9503 49.2569 28.9009C48.6852 28.6821 47.2311 30.2703 46.9558 31.4138C46.8711 31.7808 46.9982 32.1761 47.2523 32.3172C47.3652 32.3808 47.457 32.4655 47.457 32.5078C47.457 32.5784 46.9064 33.3407 46.8288 33.376C46.8076 33.3831 46.5041 33.5948 46.1512 33.8489C45.3818 34.3995 44.8806 34.6607 44.5912 34.6607C44.316 34.6607 44.2101 34.5477 44.2101 34.2442C44.2101 33.7431 44.7536 32.8537 45.9253 31.449C46.1865 31.1455 46.3982 30.8279 46.3982 30.7573C46.3982 30.5738 46.1582 30.1362 45.9465 29.9385C45.7982 29.7974 45.7206 29.7762 45.41 29.8044C44.7395 29.8679 43.6878 30.7079 41.6549 32.7831L40.3985 34.0607V33.5454V33.0301L40.9702 32.3808C43.5748 29.4374 47.3864 24.1294 47.3864 23.4518C47.3864 23.2118 47.1252 23.0635 46.6735 23.0282L46.25 23L45.4241 23.8329ZM26.1756 26.4728C26.4015 26.8398 24.7851 29.7832 23.7404 30.9197C23.4087 31.2867 23.3875 31.2938 23.4299 31.0961C23.8463 29.1762 25.8015 25.8728 26.1756 26.4728ZM30.8907 30.4538C30.9542 30.6091 30.6154 31.2232 30.2625 31.6184C30.086 31.8161 29.7472 32.1196 29.5072 32.3031C29.0908 32.6137 28.3355 33.0372 28.1943 33.0372C28.0955 33.0372 28.2085 32.6913 28.4485 32.2467C28.9637 31.2796 30.7142 29.995 30.8907 30.4538ZM36.4104 31.6467C36.2128 32.042 36.0152 32.5361 35.9658 32.7408C35.8599 33.1996 35.8528 33.9054 35.9516 34.2372C36.0152 34.463 36.0081 34.4983 35.8316 34.6395C35.1823 35.1689 34.4341 35.3595 33.9753 35.1195C33.6859 34.9712 33.6506 34.7383 33.7917 34.0254C33.9611 33.1996 34.1164 32.9102 34.6811 32.3737C35.0834 31.9925 36.594 30.9197 36.7281 30.9197C36.7492 30.9197 36.6081 31.2443 36.4104 31.6467Z" fill="#3E007C"/>
</svg>
