<svg width="20" height="20" viewBox="0 0 20 20" fill="none" xmlns="http://www.w3.org/2000/svg">
<g clip-path="url(#clip0_4946_355273)">
<path d="M0.62207 13.4789C2.035 17.2869 5.70043 20.0007 10.0001 20.0007C14.2997 20.0007 17.9652 17.2869 19.3781 13.4789L10.0001 12.6094L0.62207 13.4789Z" fill="#FFDA44"/>
<path d="M10.0001 0C5.70043 0 2.035 2.71375 0.62207 6.52176L10.0001 7.39129L19.3781 6.52172C17.9652 2.71375 14.2997 0 10.0001 0Z" fill="black"/>
<path d="M0.621992 6.52344C0.220039 7.60676 0 8.77848 0 10.0017C0 11.2249 0.220039 12.3966 0.621992 13.4799H19.378C19.78 12.3966 20 11.2249 20 10.0017C20 8.77848 19.78 7.60676 19.378 6.52344H0.621992Z" fill="#D80027"/>
</g>
<defs>
<clipPath id="clip0_4946_355273">
<rect width="20" height="20" fill="white"/>
</clipPath>
</defs>
</svg>
