<svg width="17" height="17" viewBox="0 0 17 17" fill="none" xmlns="http://www.w3.org/2000/svg">
<g clip-path="url(#clip0_156_151108)">
<path d="M8.33203 16.5C12.7503 16.5 16.332 12.9183 16.332 8.5C16.332 4.08172 12.7503 0.5 8.33203 0.5C3.91375 0.5 0.332031 4.08172 0.332031 8.5C0.332031 12.9183 3.91375 16.5 8.33203 16.5Z" fill="#F0F0F0"/>
<path d="M16.3307 8.50045C16.3307 5.06073 14.1597 2.12839 11.1133 0.998047V16.0029C14.1597 14.8725 16.3307 11.9402 16.3307 8.50045Z" fill="#D80027"/>
<path d="M0.332031 8.50045C0.332031 11.9402 2.50303 14.8725 5.54944 16.0029V0.998047C2.50303 2.12839 0.332031 5.06073 0.332031 8.50045Z" fill="#6DA544"/>
</g>
<defs>
<clipPath id="clip0_156_151108">
<rect width="16" height="16" fill="white" transform="translate(0.332031 0.5)"/>
</clipPath>
</defs>
</svg>
