<svg width="17" height="17" viewBox="0 0 17 17" fill="none" xmlns="http://www.w3.org/2000/svg">
<g clip-path="url(#clip0_156_151084)">
<path d="M8.33203 16.5C12.7503 16.5 16.332 12.9183 16.332 8.5C16.332 4.08172 12.7503 0.5 8.33203 0.5C3.91375 0.5 0.332031 4.08172 0.332031 8.5C0.332031 12.9183 3.91375 16.5 8.33203 16.5Z" fill="#F0F0F0"/>
<path d="M8.33119 0.5C5.1595 0.5 2.419 2.34578 1.125 5.02175H15.5373C14.2434 2.34578 11.5028 0.5 8.33119 0.5Z" fill="#FF9811"/>
<path d="M8.33119 16.5003C11.5028 16.5003 14.2434 14.6545 15.5374 11.9785H1.125C2.419 14.6545 5.1595 16.5003 8.33119 16.5003Z" fill="#6DA544"/>
<path d="M8.33337 11.282C9.87016 11.282 11.116 10.0362 11.116 8.49939C11.116 6.96261 9.87016 5.7168 8.33337 5.7168C6.79659 5.7168 5.55078 6.96261 5.55078 8.49939C5.55078 10.0362 6.79659 11.282 8.33337 11.282Z" fill="#0052B4"/>
<path d="M8.33287 10.24C9.29337 10.24 10.072 9.46134 10.072 8.50084C10.072 7.54035 9.29337 6.76172 8.33287 6.76172C7.37238 6.76172 6.59375 7.54035 6.59375 8.50084C6.59375 9.46134 7.37238 10.24 8.33287 10.24Z" fill="#F0F0F0"/>
<path d="M8.33119 6.35352L8.86772 7.57033L10.1897 7.42655L9.40422 8.49958L10.1897 9.57261L8.86772 9.42883L8.33119 10.6456L7.79466 9.42883L6.47266 9.57258L7.25816 8.49958L6.47266 7.42655L7.79466 7.57033L8.33119 6.35352Z" fill="#0052B4"/>
</g>
<defs>
<clipPath id="clip0_156_151084">
<rect width="16" height="16" fill="white" transform="translate(0.332031 0.5)"/>
</clipPath>
</defs>
</svg>
