<svg width="17" height="17" viewBox="0 0 17 17" fill="none" xmlns="http://www.w3.org/2000/svg">
<g clip-path="url(#clip0_156_151100)">
<path d="M8.33203 16.5C12.7503 16.5 16.332 12.9183 16.332 8.5C16.332 4.08172 12.7503 0.5 8.33203 0.5C3.91375 0.5 0.332031 4.08172 0.332031 8.5C0.332031 12.9183 3.91375 16.5 8.33203 16.5Z" fill="#D80027"/>
<path d="M4.71016 5.36719L5.40078 7.49219H7.63516L5.82891 8.80781L6.51953 10.9328L4.71016 9.62031L2.90078 10.9328L3.59453 8.80781L1.78516 7.49219H4.01953L4.71016 5.36719Z" fill="#FFDA44"/>
<path d="M9.81797 12.8898L9.28984 12.2398L8.50859 12.543L8.96172 11.8398L8.43359 11.1867L9.24297 11.4023L9.69922 10.6992L9.74297 11.5367L10.5555 11.7523L9.77109 12.0523L9.81797 12.8898Z" fill="#FFDA44"/>
<path d="M10.868 10.9836L11.118 10.1836L10.4336 9.69922L11.2711 9.68672L11.518 8.88672L11.7898 9.68047L12.6273 9.67109L11.9555 10.1711L12.2242 10.9648L11.5398 10.4805L10.868 10.9836Z" fill="#FFDA44"/>
<path d="M12.2805 6.37148L11.9117 7.12461L12.5117 7.70898L11.6836 7.59023L11.3148 8.34023L11.1711 7.51523L10.3398 7.39648L11.0836 7.00586L10.9398 6.17773L11.5398 6.76211L12.2805 6.37148Z" fill="#FFDA44"/>
<path d="M9.8375 4.08984L9.775 4.92422L10.5531 5.23984L9.7375 5.43984L9.67813 6.27734L9.2375 5.56484L8.42188 5.76484L8.9625 5.12422L8.51875 4.41484L9.29688 4.73047L9.8375 4.08984Z" fill="#FFDA44"/>
</g>
<defs>
<clipPath id="clip0_156_151100">
<rect width="16" height="16" fill="white" transform="translate(0.332031 0.5)"/>
</clipPath>
</defs>
</svg>
