<svg width="17" height="17" viewBox="0 0 17 17" fill="none" xmlns="http://www.w3.org/2000/svg">
<g clip-path="url(#clip0_156_151104)">
<path d="M8.33203 16.5C12.7503 16.5 16.332 12.9183 16.332 8.5C16.332 4.08172 12.7503 0.5 8.33203 0.5C3.91375 0.5 0.332031 4.08172 0.332031 8.5C0.332031 12.9183 3.91375 16.5 8.33203 16.5Z" fill="#F0F0F0"/>
<path d="M15.8344 11.282C16.156 10.4153 16.332 9.47795 16.332 8.49939C16.332 7.52083 16.156 6.58345 15.8344 5.7168H0.829625C0.508063 6.58345 0.332031 7.52083 0.332031 8.49939C0.332031 9.47795 0.508063 10.4153 0.829625 11.282L8.33203 11.9776L15.8344 11.282Z" fill="#0052B4"/>
<path d="M8.33053 16.5006C11.7703 16.5006 14.7026 14.3296 15.8329 11.2832H0.828125C1.95847 14.3296 4.89081 16.5006 8.33053 16.5006Z" fill="#D80027"/>
</g>
<defs>
<clipPath id="clip0_156_151104">
<rect width="16" height="16" fill="white" transform="translate(0.332031 0.5)"/>
</clipPath>
</defs>
</svg>
