<svg width="16" height="17" viewBox="0 0 16 17" fill="none" xmlns="http://www.w3.org/2000/svg">
<g clip-path="url(#clip0_64_6851)">
<path d="M8 16.5C12.4183 16.5 16 12.9183 16 8.5C16 4.08172 12.4183 0.5 8 0.5C3.58172 0.5 0 4.08172 0 8.5C0 12.9183 3.58172 16.5 8 16.5Z" fill="#F0F0F0"/>
<path d="M15.9987 8.50241C15.9987 5.06269 13.8277 2.13034 10.7812 1V16.0048C13.8277 14.8745 15.9987 11.9421 15.9987 8.50241Z" fill="#D80027"/>
<path d="M0 8.50241C0 11.9421 2.171 14.8745 5.21741 16.0048V1C2.171 2.13034 0 5.06269 0 8.50241Z" fill="#6DA544"/>
</g>
<defs>
<clipPath id="clip0_64_6851">
<rect width="16" height="16" fill="white" transform="translate(0 0.5)"/>
</clipPath>
</defs>
</svg>
