<svg width="16" height="17" viewBox="0 0 16 17" fill="none" xmlns="http://www.w3.org/2000/svg">
<g clip-path="url(#clip0_64_6847)">
<path d="M8 16.5C12.4183 16.5 16 12.9183 16 8.5C16 4.08172 12.4183 0.5 8 0.5C3.58172 0.5 0 4.08172 0 8.5C0 12.9183 3.58172 16.5 8 16.5Z" fill="#F0F0F0"/>
<path d="M15.5024 11.2839C15.824 10.4173 16 9.47991 16 8.50134C16 7.52278 15.824 6.58541 15.5024 5.71875H0.497594C0.176031 6.58541 0 7.52278 0 8.50134C0 9.47991 0.176031 10.4173 0.497594 11.2839L8 11.9796L15.5024 11.2839Z" fill="#0052B4"/>
<path d="M7.9985 16.4987C11.4382 16.4987 14.3706 14.3277 15.5009 11.2812H0.496094C1.62644 14.3277 4.55878 16.4987 7.9985 16.4987Z" fill="#D80027"/>
</g>
<defs>
<clipPath id="clip0_64_6847">
<rect width="16" height="16" fill="white" transform="translate(0 0.5)"/>
</clipPath>
</defs>
</svg>
