<svg width="17" height="17" viewBox="0 0 17 17" fill="none" xmlns="http://www.w3.org/2000/svg">
<g clip-path="url(#clip0_156_151096)">
<path d="M8.33203 16.5C12.7503 16.5 16.332 12.9183 16.332 8.5C16.332 4.08172 12.7503 0.5 8.33203 0.5C3.91375 0.5 0.332031 4.08172 0.332031 8.5C0.332031 12.9183 3.91375 16.5 8.33203 16.5Z" fill="#F0F0F0"/>
<path d="M16.3303 8.49916C16.3303 5.32747 14.4846 2.58697 11.8086 1.29297V15.7053C14.4846 14.4113 16.3303 11.6708 16.3303 8.49916Z" fill="#D80027"/>
<path d="M0.332031 8.49916C0.332031 11.6708 2.17781 14.4113 4.85378 15.7053V1.29297C2.17781 2.58697 0.332031 5.32747 0.332031 8.49916Z" fill="#6DA544"/>
<path d="M6.24609 8.49839C6.24609 9.65098 7.18047 10.5854 8.33306 10.5854C9.48566 10.5854 10.42 9.65098 10.42 8.49839V7.80273H6.24609V8.49839Z" fill="#6DA544"/>
<path d="M11.116 7.10777H9.02906C9.02906 6.72358 8.71759 6.41211 8.33341 6.41211C7.94922 6.41211 7.63775 6.72358 7.63775 7.10777H5.55078C5.55078 7.49198 5.88544 7.80342 6.26959 7.80342H6.24644C6.24644 8.18764 6.55788 8.49908 6.94209 8.49908C6.94209 8.8833 7.25353 9.19473 7.63775 9.19473H9.02906C9.41328 9.19473 9.72472 8.8833 9.72472 8.49908C10.1089 8.49908 10.4204 8.18764 10.4204 7.80342H10.3972C10.7814 7.80342 11.116 7.49198 11.116 7.10777Z" fill="#FF9811"/>
</g>
<defs>
<clipPath id="clip0_156_151096">
<rect width="16" height="16" fill="white" transform="translate(0.332031 0.5)"/>
</clipPath>
</defs>
</svg>
