<svg width="17" height="17" viewBox="0 0 17 17" fill="none" xmlns="http://www.w3.org/2000/svg">
<g clip-path="url(#clip0_156_151076)">
<path d="M8.33203 16.5C12.7503 16.5 16.332 12.9183 16.332 8.5C16.332 4.08172 12.7503 0.5 8.33203 0.5C3.91375 0.5 0.332031 4.08172 0.332031 8.5C0.332031 12.9183 3.91375 16.5 8.33203 16.5Z" fill="#F0F0F0"/>
<path d="M16.3303 8.49916C16.3303 5.32747 14.4846 2.58697 11.8086 1.29297V15.7053C14.4846 14.4113 16.3303 11.6708 16.3303 8.49916Z" fill="#D80027"/>
<path d="M0.332031 8.49916C0.332031 11.6708 2.17781 14.4113 4.85378 15.7053V1.29297C2.17781 2.58697 0.332031 5.32747 0.332031 8.49916Z" fill="#D80027"/>
<path d="M9.72469 9.5427L11.116 8.84705L10.4203 8.49923V7.80358L9.02903 8.49923L9.72469 7.10792H9.02903L8.33337 6.06445L7.63772 7.10792H6.94206L7.63772 8.49923L6.24641 7.80358V8.49923L5.55078 8.84705L6.94206 9.5427L6.59425 10.2384H7.98556V11.2818H8.68119V10.2384H10.0725L9.72469 9.5427Z" fill="#D80027"/>
</g>
<defs>
<clipPath id="clip0_156_151076">
<rect width="16" height="16" fill="white" transform="translate(0.332031 0.5)"/>
</clipPath>
</defs>
</svg>
