<svg width="17" height="17" viewBox="0 0 17 17" fill="none" xmlns="http://www.w3.org/2000/svg">
<g clip-path="url(#clip0_156_151072)">
<path d="M8.33203 16.5C12.7503 16.5 16.332 12.9183 16.332 8.5C16.332 4.08172 12.7503 0.5 8.33203 0.5C3.91375 0.5 0.332031 4.08172 0.332031 8.5C0.332031 12.9183 3.91375 16.5 8.33203 16.5Z" fill="#F0F0F0"/>
<path d="M7.98438 8.49908H16.3322C16.3322 7.77702 16.2359 7.07752 16.0566 6.41211H7.98438V8.49908Z" fill="#D80027"/>
<path d="M7.98438 4.32525H15.158C14.6683 3.52612 14.0421 2.81978 13.3121 2.23828H7.98438V4.32525Z" fill="#D80027"/>
<path d="M8.33534 16.4989C10.2181 16.4989 11.9487 15.8481 13.3152 14.7598H3.35547C4.72203 15.8481 6.45256 16.4989 8.33534 16.4989Z" fill="#D80027"/>
<path d="M1.50797 12.6729H15.1596C15.5527 12.0314 15.8577 11.3301 16.0582 10.5859H0.609375C0.809906 11.3301 1.11481 12.0314 1.50797 12.6729Z" fill="#D80027"/>
<path d="M4.03778 1.74931H4.76681L4.08869 2.24197L4.34772 3.03912L3.66963 2.54647L2.99153 3.03912L3.21528 2.35047C2.61822 2.84781 2.09491 3.4305 1.66366 4.07975H1.89725L1.46559 4.39334C1.39834 4.50553 1.33384 4.6195 1.27203 4.73516L1.47816 5.36956L1.09359 5.09016C0.998 5.29269 0.910563 5.49978 0.831969 5.71119L1.05906 6.41019H1.89725L1.21912 6.90284L1.47816 7.7L0.800063 7.20734L0.393875 7.50247C0.353219 7.82928 0.332031 8.16216 0.332031 8.5H8.33203C8.33203 4.08175 8.33203 3.56087 8.33203 0.5C6.75166 0.5 5.27844 0.958438 4.03778 1.74931ZM4.34772 7.7L3.66963 7.20734L2.99153 7.7L3.25056 6.90284L2.57244 6.41019H3.41062L3.66963 5.61303L3.92863 6.41019H4.76681L4.08869 6.90284L4.34772 7.7ZM4.08869 4.57241L4.34772 5.36956L3.66963 4.87691L2.99153 5.36956L3.25056 4.57241L2.57244 4.07975H3.41062L3.66963 3.28259L3.92863 4.07975H4.76681L4.08869 4.57241ZM7.21728 7.7L6.53919 7.20734L5.86109 7.7L6.12012 6.90284L5.442 6.41019H6.28019L6.53919 5.61303L6.79819 6.41019H7.63637L6.95825 6.90284L7.21728 7.7ZM6.95825 4.57241L7.21728 5.36956L6.53919 4.87691L5.86109 5.36956L6.12012 4.57241L5.442 4.07975H6.28019L6.53919 3.28259L6.79819 4.07975H7.63637L6.95825 4.57241ZM6.95825 2.24197L7.21728 3.03912L6.53919 2.54647L5.86109 3.03912L6.12012 2.24197L5.442 1.74931H6.28019L6.53919 0.952156L6.79819 1.74931H7.63637L6.95825 2.24197Z" fill="#0052B4"/>
</g>
<defs>
<clipPath id="clip0_156_151072">
<rect width="16" height="16" fill="white" transform="translate(0.332031 0.5)"/>
</clipPath>
</defs>
</svg>
