<svg width="17" height="17" viewBox="0 0 17 17" fill="none" xmlns="http://www.w3.org/2000/svg">
<g clip-path="url(#clip0_156_151088)">
<path d="M8.33203 16.5C12.7503 16.5 16.332 12.9183 16.332 8.5C16.332 4.08172 12.7503 0.5 8.33203 0.5C3.91375 0.5 0.332031 4.08172 0.332031 8.5C0.332031 12.9183 3.91375 16.5 8.33203 16.5Z" fill="#6DA544"/>
<path d="M8.33134 3.63086L14.94 8.50042L8.33134 13.37L1.72266 8.50042L8.33134 3.63086Z" fill="#FFDA44"/>
<path d="M8.33337 11.282C9.87016 11.282 11.116 10.0362 11.116 8.49939C11.116 6.96261 9.87016 5.7168 8.33337 5.7168C6.79659 5.7168 5.55078 6.96261 5.55078 8.49939C5.55078 10.0362 6.79659 11.282 8.33337 11.282Z" fill="#F0F0F0"/>
<path d="M6.94119 8.32617C6.45731 8.32617 5.99034 8.39977 5.55078 8.53633C5.57025 10.0563 6.80788 11.2827 8.3325 11.2827C9.27525 11.2827 10.1079 10.8134 10.6112 10.0962C9.75006 9.01817 8.42503 8.32617 6.94119 8.32617Z" fill="#0052B4"/>
<path d="M11.0654 9.03252C11.0989 8.85989 11.117 8.6818 11.117 8.49939C11.117 6.96258 9.87119 5.7168 8.33441 5.7168C7.18772 5.7168 6.20334 6.41058 5.77734 7.40114C6.15391 7.32311 6.54378 7.28202 6.94312 7.28202C8.55928 7.28198 10.0213 7.9538 11.0654 9.03252Z" fill="#0052B4"/>
</g>
<defs>
<clipPath id="clip0_156_151088">
<rect width="16" height="16" fill="white" transform="translate(0.332031 0.5)"/>
</clipPath>
</defs>
</svg>
