<svg width="17" height="17" viewBox="0 0 17 17" fill="none" xmlns="http://www.w3.org/2000/svg">
<g clip-path="url(#clip0_156_151080)">
<path d="M0.332031 8.49973C0.332031 9.4783 0.508063 10.4157 0.829625 11.2823L8.33203 11.978L15.8344 11.2823C16.156 10.4157 16.332 9.4783 16.332 8.49973C16.332 7.52117 16.156 6.5838 15.8344 5.71714L8.33203 5.02148L0.829625 5.71714C0.508063 6.5838 0.332031 7.52117 0.332031 8.49973H0.332031Z" fill="#FFDA44"/>
<path d="M15.8329 5.71741C14.7026 2.67103 11.7703 0.5 8.33053 0.5C4.89081 0.5 1.95847 2.67103 0.828125 5.71741H15.8329Z" fill="#D80027"/>
<path d="M0.828125 11.2832C1.95847 14.3296 4.89081 16.5006 8.33053 16.5006C11.7703 16.5006 14.7026 14.3296 15.8329 11.2832H0.828125Z" fill="#D80027"/>
</g>
<defs>
<clipPath id="clip0_156_151080">
<rect width="16" height="16" fill="white" transform="translate(0.332031 0.5)"/>
</clipPath>
</defs>
</svg>
