<svg width="17" height="17" viewBox="0 0 17 17" fill="none" xmlns="http://www.w3.org/2000/svg">
<g clip-path="url(#clip0_156_151092)">
<path d="M0.828125 11.2835C1.95847 14.3299 4.89081 16.5009 8.33053 16.5009C11.7703 16.5009 14.7026 14.3299 15.8329 11.2835L8.33053 10.5879L0.828125 11.2835Z" fill="#FFDA44"/>
<path d="M8.33053 0.5C4.89081 0.5 1.95847 2.671 0.828125 5.71741L8.33053 6.41303L15.8329 5.71737C14.7026 2.671 11.7703 0.5 8.33053 0.5Z" fill="black"/>
<path d="M0.829625 5.7168C0.508063 6.58345 0.332031 7.52083 0.332031 8.49939C0.332031 9.47795 0.508063 10.4153 0.829625 11.282H15.8345C16.156 10.4153 16.332 9.47795 16.332 8.49939C16.332 7.52083 16.156 6.58345 15.8344 5.7168H0.829625Z" fill="#D80027"/>
</g>
<defs>
<clipPath id="clip0_156_151092">
<rect width="16" height="16" fill="white" transform="translate(0.332031 0.5)"/>
</clipPath>
</defs>
</svg>
