<svg width="16" height="17" viewBox="0 0 16 17" fill="none" xmlns="http://www.w3.org/2000/svg">
<g clip-path="url(#clip0_64_6831)">
<path d="M8 16.5C12.4183 16.5 16 12.9183 16 8.5C16 4.08172 12.4183 0.5 8 0.5C3.58172 0.5 0 4.08172 0 8.5C0 12.9183 3.58172 16.5 8 16.5Z" fill="#6DA544"/>
<path d="M7.99931 3.63281L14.608 8.50237L7.99931 13.3719L1.39062 8.50237L7.99931 3.63281Z" fill="#FFDA44"/>
<path d="M8.00134 11.2839C9.53813 11.2839 10.7839 10.0381 10.7839 8.50134C10.7839 6.96456 9.53813 5.71875 8.00134 5.71875C6.46456 5.71875 5.21875 6.96456 5.21875 8.50134C5.21875 10.0381 6.46456 11.2839 8.00134 11.2839Z" fill="#F0F0F0"/>
<path d="M6.60916 8.32812C6.12528 8.32812 5.65831 8.40172 5.21875 8.53828C5.23822 10.0583 6.47584 11.2847 8.00047 11.2847C8.94322 11.2847 9.77584 10.8154 10.2792 10.0982C9.41803 9.02012 8.093 8.32812 6.60916 8.32812Z" fill="#0052B4"/>
<path d="M10.7334 9.03447C10.7669 8.86184 10.785 8.68375 10.785 8.50134C10.785 6.96453 9.53916 5.71875 8.00238 5.71875C6.85569 5.71875 5.87131 6.41253 5.44531 7.40309C5.82188 7.32506 6.21175 7.28397 6.61109 7.28397C8.22725 7.28394 9.68931 7.95575 10.7334 9.03447Z" fill="#0052B4"/>
</g>
<defs>
<clipPath id="clip0_64_6831">
<rect width="16" height="16" fill="white" transform="translate(0 0.5)"/>
</clipPath>
</defs>
</svg>
