<svg width="16" height="17" viewBox="0 0 16 17" fill="none" xmlns="http://www.w3.org/2000/svg">
<g clip-path="url(#clip0_64_6819)">
<path d="M8 16.5C12.4183 16.5 16 12.9183 16 8.5C16 4.08172 12.4183 0.5 8 0.5C3.58172 0.5 0 4.08172 0 8.5C0 12.9183 3.58172 16.5 8 16.5Z" fill="#F0F0F0"/>
<path d="M15.9983 8.50306C15.9983 5.33137 14.1525 2.59088 11.4766 1.29688V15.7092C14.1525 14.4152 15.9983 11.6747 15.9983 8.50306Z" fill="#D80027"/>
<path d="M0 8.50306C0 11.6747 1.84578 14.4152 4.52175 15.7092V1.29688C1.84578 2.59088 0 5.33137 0 8.50306Z" fill="#D80027"/>
<path d="M9.39266 9.54856L10.7839 8.85291L10.0883 8.50509V7.80944L8.697 8.50509L9.39266 7.11378H8.697L8.00134 6.07031L7.30569 7.11378H6.61003L7.30569 8.50509L5.91437 7.80944V8.50509L5.21875 8.85291L6.61003 9.54856L6.26222 10.2442H7.65353V11.2877H8.34916V10.2442H9.74047L9.39266 9.54856Z" fill="#D80027"/>
</g>
<defs>
<clipPath id="clip0_64_6819">
<rect width="16" height="16" fill="white" transform="translate(0 0.5)"/>
</clipPath>
</defs>
</svg>
