<svg width="16" height="17" viewBox="0 0 16 17" fill="none" xmlns="http://www.w3.org/2000/svg">
<g clip-path="url(#clip0_64_6843)">
<path d="M8 16.5C12.4183 16.5 16 12.9183 16 8.5C16 4.08172 12.4183 0.5 8 0.5C3.58172 0.5 0 4.08172 0 8.5C0 12.9183 3.58172 16.5 8 16.5Z" fill="#D80027"/>
<path d="M4.37812 5.375L5.06875 7.5H7.30312L5.49687 8.81563L6.1875 10.9406L4.37812 9.62813L2.56875 10.9406L3.2625 8.81563L1.45312 7.5H3.6875L4.37812 5.375Z" fill="#FFDA44"/>
<path d="M9.48594 12.8938L8.95781 12.2438L8.17656 12.5469L8.62969 11.8438L8.10156 11.1906L8.91094 11.4062L9.36719 10.7031L9.41094 11.5406L10.2234 11.7563L9.43906 12.0563L9.48594 12.8938Z" fill="#FFDA44"/>
<path d="M10.5359 10.9875L10.7859 10.1875L10.1016 9.70312L10.9391 9.69063L11.1859 8.89062L11.4578 9.68437L12.2953 9.675L11.6234 10.175L11.8922 10.9688L11.2078 10.4844L10.5359 10.9875Z" fill="#FFDA44"/>
<path d="M11.9484 6.37344L11.5797 7.12656L12.1797 7.71094L11.3516 7.59219L10.9828 8.34219L10.8391 7.51719L10.0078 7.39844L10.7516 7.00781L10.6078 6.17969L11.2078 6.76406L11.9484 6.37344Z" fill="#FFDA44"/>
<path d="M9.50547 4.09375L9.44297 4.92813L10.2211 5.24375L9.40547 5.44375L9.34609 6.28125L8.90547 5.56875L8.08984 5.76875L8.63047 5.12813L8.18672 4.41875L8.96484 4.73438L9.50547 4.09375Z" fill="#FFDA44"/>
</g>
<defs>
<clipPath id="clip0_64_6843">
<rect width="16" height="16" fill="white" transform="translate(0 0.5)"/>
</clipPath>
</defs>
</svg>
