<svg width="16" height="17" viewBox="0 0 16 17" fill="none" xmlns="http://www.w3.org/2000/svg">
<g clip-path="url(#clip0_64_6827)">
<path d="M8 16.5C12.4183 16.5 16 12.9183 16 8.5C16 4.08172 12.4183 0.5 8 0.5C3.58172 0.5 0 4.08172 0 8.5C0 12.9183 3.58172 16.5 8 16.5Z" fill="#F0F0F0"/>
<path d="M7.99916 0.5C4.82747 0.5 2.08697 2.34578 0.792969 5.02175H15.2053C13.9113 2.34578 11.1708 0.5 7.99916 0.5Z" fill="#FF9811"/>
<path d="M7.99916 16.4983C11.1708 16.4983 13.9113 14.6525 15.2053 11.9766H0.792969C2.08697 14.6525 4.82747 16.4983 7.99916 16.4983Z" fill="#6DA544"/>
<path d="M8.00134 11.2839C9.53813 11.2839 10.7839 10.0381 10.7839 8.50134C10.7839 6.96456 9.53813 5.71875 8.00134 5.71875C6.46456 5.71875 5.21875 6.96456 5.21875 8.50134C5.21875 10.0381 6.46456 11.2839 8.00134 11.2839Z" fill="#0052B4"/>
<path d="M8.00084 10.2361C8.96134 10.2361 9.73997 9.45743 9.73997 8.49694C9.73997 7.53645 8.96134 6.75781 8.00084 6.75781C7.04035 6.75781 6.26172 7.53645 6.26172 8.49694C6.26172 9.45743 7.04035 10.2361 8.00084 10.2361Z" fill="#F0F0F0"/>
<path d="M7.99916 6.35156L8.53569 7.56838L9.85769 7.42459L9.07219 8.49762L9.85769 9.57066L8.53569 9.42687L7.99916 10.6437L7.46263 9.42687L6.14062 9.57062L6.92613 8.49762L6.14062 7.42459L7.46263 7.56838L7.99916 6.35156Z" fill="#0052B4"/>
</g>
<defs>
<clipPath id="clip0_64_6827">
<rect width="16" height="16" fill="white" transform="translate(0 0.5)"/>
</clipPath>
</defs>
</svg>
