<svg width="16" height="17" viewBox="0 0 16 17" fill="none" xmlns="http://www.w3.org/2000/svg">
<g clip-path="url(#clip0_64_6839)">
<path d="M8 16.5C12.4183 16.5 16 12.9183 16 8.5C16 4.08172 12.4183 0.5 8 0.5C3.58172 0.5 0 4.08172 0 8.5C0 12.9183 3.58172 16.5 8 16.5Z" fill="#F0F0F0"/>
<path d="M15.9983 8.50306C15.9983 5.33137 14.1525 2.59088 11.4766 1.29688V15.7092C14.1525 14.4152 15.9983 11.6747 15.9983 8.50306Z" fill="#D80027"/>
<path d="M0 8.50306C0 11.6747 1.84578 14.4152 4.52175 15.7092V1.29688C1.84578 2.59088 0 5.33137 0 8.50306Z" fill="#6DA544"/>
<path d="M5.91406 8.50034C5.91406 9.65294 6.84844 10.5873 8.00103 10.5873C9.15363 10.5873 10.088 9.65294 10.088 8.50034V7.80469H5.91406V8.50034Z" fill="#6DA544"/>
<path d="M10.784 7.10972H8.69703C8.69703 6.72553 8.38556 6.41406 8.00137 6.41406C7.61719 6.41406 7.30572 6.72553 7.30572 7.10972H5.21875C5.21875 7.49394 5.55341 7.80538 5.93756 7.80538H5.91441C5.91441 8.18959 6.22584 8.50103 6.61006 8.50103C6.61006 8.88525 6.9215 9.19669 7.30572 9.19669H8.69703C9.08125 9.19669 9.39269 8.88525 9.39269 8.50103C9.77691 8.50103 10.0883 8.18959 10.0883 7.80538H10.0652C10.4494 7.80538 10.784 7.49394 10.784 7.10972Z" fill="#FF9811"/>
</g>
<defs>
<clipPath id="clip0_64_6839">
<rect width="16" height="16" fill="white" transform="translate(0 0.5)"/>
</clipPath>
</defs>
</svg>
