<svg width="24" height="25" viewBox="0 0 24 25" fill="none" xmlns="http://www.w3.org/2000/svg">
<g clip-path="url(#clip0_480_701189)">
<path d="M14 3.5V7.5C14 7.76522 14.1054 8.01957 14.2929 8.20711C14.4804 8.39464 14.7348 8.5 15 8.5H19" stroke="white" stroke-linecap="round" stroke-linejoin="round"/>
<path d="M5 12.5V5.5C5 4.96957 5.21071 4.46086 5.58579 4.08579C5.96086 3.71071 6.46957 3.5 7 3.5H14L19 8.5V12.5" stroke="white" stroke-linecap="round" stroke-linejoin="round"/>
<path d="M5 18.5H6.5C6.89782 18.5 7.27936 18.342 7.56066 18.0607C7.84196 17.7794 8 17.3978 8 17C8 16.6022 7.84196 16.2206 7.56066 15.9393C7.27936 15.658 6.89782 15.5 6.5 15.5H5V21.5" stroke="white" stroke-linecap="round" stroke-linejoin="round"/>
<path d="M17 18.5H19" stroke="white" stroke-linecap="round" stroke-linejoin="round"/>
<path d="M20 15.5H17V21.5" stroke="white" stroke-linecap="round" stroke-linejoin="round"/>
<path d="M11 15.5V21.5H12C12.5304 21.5 13.0391 21.2893 13.4142 20.9142C13.7893 20.5391 14 20.0304 14 19.5V17.5C14 16.9696 13.7893 16.4609 13.4142 16.0858C13.0391 15.7107 12.5304 15.5 12 15.5H11Z" stroke="white" stroke-linecap="round" stroke-linejoin="round"/>
</g>
<defs>
<clipPath id="clip0_480_701189">
<rect width="24" height="24" fill="white" transform="translate(0 0.5)"/>
</clipPath>
</defs>
</svg>
